<svg xmlns="http://www.w3.org/2000/svg" width="1280" height="720" viewBox="0 0 1280 720">
  <defs>
    <marker id="a" markerWidth="10" markerHeight="10" refX="9" refY="3" orient="auto"><path d="M0,0 L0,6 L9,3 z" fill="#555"/></marker>
    <marker id="ad" markerWidth="10" markerHeight="10" refX="9" refY="3" orient="auto"><path d="M0,0 L0,6 L9,3 z" fill="#999"/></marker>
  </defs>
  <rect width="1280" height="720" fill="#FFFFFF"/>
  <style>
    text { font-family: 'Microsoft YaHei','SimHei','PingFang SC','Noto Sans CJK SC',sans-serif; }
    .mono { font-family: 'Consolas','Courier New',monospace; }
    .title { font-size: 18px; font-weight: 700; fill: #1B1B1B; }
    .subtitle { font-size: 12px; fill: #555; }
    .h { font-size: 14px; font-weight: 600; }
    .b { font-size: 13px; }
    .s { font-size: 11px; fill: #555; }
    .lbl { font-size: 11px; fill: #555; }
  </style><text x="20" y="36" class="title">图1 · 系统上下文图（System Context）</text><rect x="480" y="280" width="320" height="160" rx="8" ry="8" fill="#E8F4EA" stroke="#2E7D32" stroke-width="1.5"/><text x="640" y="356" text-anchor="middle" class="h" fill="#1B1B1B">云上田园 平台</text><text x="640" y="372" text-anchor="middle" class="s" fill="#1B1B1B">Cloud-Farm Platform</text><rect x="60" y="140" width="230" height="80" rx="8" ry="8" fill="#E3F2FD" stroke="#1976D2" stroke-width="1.5"/><text x="175" y="176" text-anchor="middle" class="h" fill="#1B1B1B">认养用户 / 企业员工</text><text x="175" y="192" text-anchor="middle" class="s" fill="#1B1B1B">C 端 · 微信小程序</text><rect x="60" y="320" width="230" height="80" rx="8" ry="8" fill="#E3F2FD" stroke="#1976D2" stroke-width="1.5"/><text x="175" y="356" text-anchor="middle" class="h" fill="#1B1B1B">运营 / 场长 / 农技员</text><text x="175" y="372" text-anchor="middle" class="s" fill="#1B1B1B">B 端 · Web 管理后台</text><rect x="60" y="500" width="230" height="80" rx="8" ry="8" fill="#E3F2FD" stroke="#1976D2" stroke-width="1.5"/><text x="175" y="536" text-anchor="middle" class="h" fill="#1B1B1B">田间摄像头 / 传感器</text><text x="175" y="552" text-anchor="middle" class="s" fill="#1B1B1B">IoT 设备</text><rect x="990" y="60" width="260" height="76" rx="8" ry="8" fill="#EFEBE9" stroke="#6D4C41" stroke-width="1.5"/><text x="1120" y="94" text-anchor="middle" class="h" fill="#1B1B1B">微信开放平台 / 微信支付</text><text x="1120" y="110" text-anchor="middle" class="s" fill="#1B1B1B">OAuth · 支付 · 订阅消息</text><rect x="990" y="170" width="260" height="76" rx="8" ry="8" fill="#EFEBE9" stroke="#6D4C41" stroke-width="1.5"/><text x="1120" y="204" text-anchor="middle" class="h" fill="#1B1B1B">萤石云 OpenAPI</text><text x="1120" y="220" text-anchor="middle" class="s" fill="#1B1B1B">摄像头接入 · 取流</text><rect x="990" y="280" width="260" height="76" rx="8" ry="8" fill="#EFEBE9" stroke="#6D4C41" stroke-width="1.5"/><text x="1120" y="314" text-anchor="middle" class="h" fill="#1B1B1B">腾讯云直播 / CDN</text><text x="1120" y="330" text-anchor="middle" class="s" fill="#1B1B1B">自营直播 · 回放分发</text><rect x="990" y="390" width="260" height="76" rx="8" ry="8" fill="#EFEBE9" stroke="#6D4C41" stroke-width="1.5"/><text x="1120" y="424" text-anchor="middle" class="h" fill="#1B1B1B">顺丰 / 京东 物流 API</text><text x="1120" y="440" text-anchor="middle" class="s" fill="#1B1B1B">下单 · 单号回传</text><rect x="990" y="500" width="260" height="76" rx="8" ry="8" fill="#EFEBE9" stroke="#6D4C41" stroke-width="1.5"/><text x="1120" y="534" text-anchor="middle" class="h" fill="#1B1B1B">腾讯云短信 / SLS</text><text x="1120" y="550" text-anchor="middle" class="s" fill="#1B1B1B">告警 · 验证码 · 日志</text><rect x="990" y="610" width="260" height="76" rx="8" ry="8" fill="#F3E5F5" stroke="#7B1FA2" stroke-width="1.5"/><text x="1120" y="644" text-anchor="middle" class="h" fill="#1B1B1B">OSS / RDS / Redis</text><text x="1120" y="660" text-anchor="middle" class="s" fill="#1B1B1B">基础设施（云托管）</text><line x1="290" y1="180" x2="480" y2="320" stroke="#555" stroke-width="1.5"  marker-end="url(#a)"/><rect x="369" y="235" width="32" height="14" fill="white" opacity="0.92"/><text x="385" y="246" text-anchor="middle" class="lbl">小程序</text><line x1="290" y1="360" x2="480" y2="360" stroke="#555" stroke-width="1.5"  marker-end="url(#a)"/><rect x="357" y="345" width="56" height="14" fill="white" opacity="0.92"/><text x="385" y="356" text-anchor="middle" class="lbl">Web 后台</text><line x1="290" y1="540" x2="480" y2="400" stroke="#555" stroke-width="1.5"  marker-end="url(#a)"/><rect x="357" y="455" width="56" height="14" fill="white" opacity="0.92"/><text x="385" y="466" text-anchor="middle" class="lbl">IoT 上报</text><line x1="800" y1="320" x2="990" y2="98" stroke="#555" stroke-width="1.5" marker-start="url(#a)" marker-end="url(#a)"/><line x1="800" y1="340" x2="990" y2="208" stroke="#555" stroke-width="1.5" marker-start="url(#a)" marker-end="url(#a)"/><line x1="800" y1="360" x2="990" y2="318" stroke="#555" stroke-width="1.5" marker-start="url(#a)" marker-end="url(#a)"/><line x1="800" y1="380" x2="990" y2="428" stroke="#555" stroke-width="1.5"  marker-end="url(#a)"/><rect x="883" y="389" width="24" height="14" fill="white" opacity="0.92"/><text x="895" y="400" text-anchor="middle" class="lbl">异步</text><line x1="800" y1="400" x2="990" y2="538" stroke="#555" stroke-width="1.5"  marker-end="url(#a)"/><rect x="883" y="454" width="24" height="14" fill="white" opacity="0.92"/><text x="895" y="465" text-anchor="middle" class="lbl">异步</text><line x1="800" y1="430" x2="990" y2="648" stroke="#555" stroke-width="1.5" marker-start="url(#a)" marker-end="url(#a)"/></svg>