<svg xmlns="http://www.w3.org/2000/svg" width="1400" height="900" viewBox="0 0 1400 900">
  <defs>
    <marker id="a" markerWidth="10" markerHeight="10" refX="9" refY="3" orient="auto"><path d="M0,0 L0,6 L9,3 z" fill="#555"/></marker>
    <marker id="ad" markerWidth="10" markerHeight="10" refX="9" refY="3" orient="auto"><path d="M0,0 L0,6 L9,3 z" fill="#999"/></marker>
  </defs>
  <rect width="1400" height="900" fill="#FFFFFF"/>
  <style>
    text { font-family: 'Microsoft YaHei','SimHei','PingFang SC','Noto Sans CJK SC',sans-serif; }
    .mono { font-family: 'Consolas','Courier New',monospace; }
    .title { font-size: 18px; font-weight: 700; fill: #1B1B1B; }
    .subtitle { font-size: 12px; fill: #555; }
    .h { font-size: 14px; font-weight: 600; }
    .b { font-size: 13px; }
    .s { font-size: 11px; fill: #555; }
    .lbl { font-size: 11px; fill: #555; }
  </style><text x="20" y="36" class="title">图2 · 容器架构图（C4-Container）</text><rect x="40" y="60" width="1320" height="140" rx="6" ry="6" fill="rgba(76,167,119,0.04)" stroke="#BDBDBD" stroke-width="1" stroke-dasharray="4,3"/>
  <text x="50" y="76" class="s" font-weight="600" fill="#555">用户侧</text><rect x="120" y="90" width="260" height="90" rx="8" ry="8" fill="#E3F2FD" stroke="#1976D2" stroke-width="1.5"/><text x="250" y="123" text-anchor="middle" class="h" fill="#1B1B1B">微信小程序（C 端）</text><text x="250" y="139" text-anchor="middle" class="s" fill="#1B1B1B">Taro 4 + Vue 3</text><text x="250" y="155" text-anchor="middle" class="s" fill="#1B1B1B">认养 · 互动 · 直播 · 下单</text><rect x="570" y="90" width="260" height="90" rx="8" ry="8" fill="#E3F2FD" stroke="#1976D2" stroke-width="1.5"/><text x="700" y="123" text-anchor="middle" class="h" fill="#1B1B1B">运营 Web 后台（B 端）</text><text x="700" y="139" text-anchor="middle" class="s" fill="#1B1B1B">Vue 3 + Element Plus</text><text x="700" y="155" text-anchor="middle" class="s" fill="#1B1B1B">订单 · 地块 · 工单 · 财务</text><rect x="1020" y="90" width="260" height="90" rx="8" ry="8" fill="#E3F2FD" stroke="#1976D2" stroke-width="1.5"/><text x="1150" y="123" text-anchor="middle" class="h" fill="#1B1B1B">农技员移动 Web</text><text x="1150" y="139" text-anchor="middle" class="s" fill="#1B1B1B">Vue 3 响应式 / PWA</text><text x="1150" y="155" text-anchor="middle" class="s" fill="#1B1B1B">工单执行 · 拍照上传</text><rect x="40" y="230" width="1320" height="80" rx="6" ry="6" fill="rgba(76,167,119,0.04)" stroke="#BDBDBD" stroke-width="1" stroke-dasharray="4,3"/>
  <text x="50" y="246" class="s" font-weight="600" fill="#555">接入层</text><rect x="300" y="245" width="800" height="50" rx="4" ry="4" fill="#FFF8E1" stroke="#F4B942" stroke-width="1.5"/><text x="700" y="266" text-anchor="middle" class="h" fill="#1B1B1B">API 网关（Nginx / APISIX）</text><text x="700" y="282" text-anchor="middle" class="s" fill="#1B1B1B">路由 · 限流 · JWT · 灰度 · 请求日志</text><rect x="40" y="340" width="1320" height="220" rx="6" ry="6" fill="rgba(76,167,119,0.04)" stroke="#BDBDBD" stroke-width="1" stroke-dasharray="4,3"/>
  <text x="50" y="356" class="s" font-weight="600" fill="#555">应用服务层  (MVP: 模块化单体；v2 按域拆分)</text><rect x="80" y="370" width="820" height="90" rx="8" ry="8" fill="#E8F4EA" stroke="#4CA777" stroke-width="1.5"/><text x="490" y="403" text-anchor="middle" class="h" fill="#1B1B1B">后端核心服务（NestJS / Spring Boot）</text><text x="490" y="419" text-anchor="middle" class="s" fill="#1B1B1B">[鉴权] [用户] [订单] [支付] [认养] [地块] [工单] [商城]</text><text x="490" y="435" text-anchor="middle" class="s" fill="#1B1B1B">[库存] [直播] [内容] [消息] [营销] [物流] [财务] [报表]</text><rect x="80" y="480" width="190" height="60" rx="8" ry="8" fill="#E8F4EA" stroke="#4CA777" stroke-width="1.5"/><text x="175" y="506" text-anchor="middle" class="h" fill="#1B1B1B">IoT 接入服务</text><text x="175" y="522" text-anchor="middle" class="s" fill="#1B1B1B">MQTT / 设备桥接</text><rect x="285" y="480" width="190" height="60" rx="8" ry="8" fill="#E8F4EA" stroke="#4CA777" stroke-width="1.5"/><text x="380" y="506" text-anchor="middle" class="h" fill="#1B1B1B">直播代理服务</text><text x="380" y="522" text-anchor="middle" class="s" fill="#1B1B1B">推拉流 · 鉴权</text><rect x="490" y="480" width="190" height="60" rx="8" ry="8" fill="#E8F4EA" stroke="#4CA777" stroke-width="1.5"/><text x="585" y="506" text-anchor="middle" class="h" fill="#1B1B1B">消息推送服务</text><text x="585" y="522" text-anchor="middle" class="s" fill="#1B1B1B">模板 · 队列消费</text><rect x="695" y="480" width="190" height="60" rx="8" ry="8" fill="#E8F4EA" stroke="#4CA777" stroke-width="1.5"/><text x="790" y="506" text-anchor="middle" class="h" fill="#1B1B1B">定时任务调度</text><text x="790" y="522" text-anchor="middle" class="s" fill="#1B1B1B">xxl-job / cron</text><rect x="920" y="370" width="400" height="170" rx="8" ry="8" fill="#FFF8E1" stroke="#F4B942" stroke-width="1.5"/><text x="1120" y="435" text-anchor="middle" class="h" fill="#1B1B1B">事件总线 / RabbitMQ</text><text x="1120" y="451" text-anchor="middle" class="s" fill="#1B1B1B">domain.events  ──▶  notify / report</text><text x="1120" y="467" text-anchor="middle" class="s" fill="#1B1B1B">finance / crm  ──▶  alert / device</text><text x="1120" y="483" text-anchor="middle" class="s" fill="#1B1B1B">(幂等 · 重试 · 死信)</text><rect x="40" y="590" width="1320" height="160" rx="6" ry="6" fill="rgba(76,167,119,0.04)" stroke="#BDBDBD" stroke-width="1" stroke-dasharray="4,3"/>
  <text x="50" y="606" class="s" font-weight="600" fill="#555">数据 &amp; 中间件层</text><rect x="80" y="620" width="220" height="110" rx="8" ry="8" fill="#F3E5F5" stroke="#7B1FA2" stroke-width="1.5"/><text x="190" y="663" text-anchor="middle" class="h" fill="#1B1B1B">MySQL 8</text><text x="190" y="679" text-anchor="middle" class="s" fill="#1B1B1B">业务库（主+从）</text><text x="190" y="695" text-anchor="middle" class="s" fill="#1B1B1B">云 RDS · 双 AZ</text><rect x="320" y="620" width="220" height="110" rx="8" ry="8" fill="#F3E5F5" stroke="#7B1FA2" stroke-width="1.5"/><text x="430" y="663" text-anchor="middle" class="h" fill="#1B1B1B">Redis 7</text><text x="430" y="679" text-anchor="middle" class="s" fill="#1B1B1B">缓存 / 分布式锁</text><text x="430" y="695" text-anchor="middle" class="s" fill="#1B1B1B">哨兵 · 1G</text><rect x="560" y="620" width="220" height="110" rx="8" ry="8" fill="#F3E5F5" stroke="#7B1FA2" stroke-width="1.5"/><text x="670" y="663" text-anchor="middle" class="h" fill="#1B1B1B">RabbitMQ</text><text x="670" y="679" text-anchor="middle" class="s" fill="#1B1B1B">事件队列</text><text x="670" y="695" text-anchor="middle" class="s" fill="#1B1B1B">3 节点集群</text><rect x="800" y="620" width="220" height="110" rx="8" ry="8" fill="#F3E5F5" stroke="#7B1FA2" stroke-width="1.5"/><text x="910" y="663" text-anchor="middle" class="h" fill="#1B1B1B">OSS / COS</text><text x="910" y="679" text-anchor="middle" class="s" fill="#1B1B1B">图片 · 视频 · 凭证</text><text x="910" y="695" text-anchor="middle" class="s" fill="#1B1B1B">三副本</text><rect x="1040" y="620" width="280" height="110" rx="8" ry="8" fill="#F3E5F5" stroke="#7B1FA2" stroke-width="1.5"/><text x="1180" y="671" text-anchor="middle" class="h" fill="#1B1B1B">ElasticSearch</text><text x="1180" y="687" text-anchor="middle" class="s" fill="#1B1B1B">搜索 · 日志（v1 引入）</text><rect x="40" y="780" width="1320" height="90" rx="6" ry="6" fill="rgba(76,167,119,0.04)" stroke="#BDBDBD" stroke-width="1" stroke-dasharray="4,3"/>
  <text x="50" y="796" class="s" font-weight="600" fill="#555">外部服务</text><rect x="70" y="810" width="170" height="40" rx="4" ry="4" fill="#EFEBE9" stroke="#6D4C41" stroke-width="1.5"/><text x="155" y="834" text-anchor="middle" class="h" fill="#1B1B1B">微信开放平台</text><rect x="255" y="810" width="170" height="40" rx="4" ry="4" fill="#EFEBE9" stroke="#6D4C41" stroke-width="1.5"/><text x="340" y="834" text-anchor="middle" class="h" fill="#1B1B1B">微信支付</text><rect x="440" y="810" width="170" height="40" rx="4" ry="4" fill="#EFEBE9" stroke="#6D4C41" stroke-width="1.5"/><text x="525" y="834" text-anchor="middle" class="h" fill="#1B1B1B">萤石云</text><rect x="625" y="810" width="170" height="40" rx="4" ry="4" fill="#EFEBE9" stroke="#6D4C41" stroke-width="1.5"/><text x="710" y="834" text-anchor="middle" class="h" fill="#1B1B1B">腾讯云直播</text><rect x="810" y="810" width="170" height="40" rx="4" ry="4" fill="#EFEBE9" stroke="#6D4C41" stroke-width="1.5"/><text x="895" y="834" text-anchor="middle" class="h" fill="#1B1B1B">顺丰 API</text><rect x="995" y="810" width="170" height="40" rx="4" ry="4" fill="#EFEBE9" stroke="#6D4C41" stroke-width="1.5"/><text x="1080" y="834" text-anchor="middle" class="h" fill="#1B1B1B">腾讯云短信</text><rect x="1180" y="810" width="170" height="40" rx="4" ry="4" fill="#EFEBE9" stroke="#6D4C41" stroke-width="1.5"/><text x="1265" y="834" text-anchor="middle" class="h" fill="#1B1B1B">OSS</text><line x1="250" y1="180" x2="600" y2="245" stroke="#555" stroke-width="1.5"  marker-end="url(#a)"/><line x1="700" y1="180" x2="700" y2="245" stroke="#555" stroke-width="1.5"  marker-end="url(#a)"/><line x1="1150" y1="180" x2="800" y2="245" stroke="#555" stroke-width="1.5"  marker-end="url(#a)"/><line x1="700" y1="295" x2="700" y2="370" stroke="#555" stroke-width="1.5"  marker-end="url(#a)"/><line x1="900" y1="420" x2="920" y2="420" stroke="#555" stroke-width="1.5" marker-start="url(#a)" marker-end="url(#a)"/><rect x="898" y="405" width="24" height="14" fill="white" opacity="0.92"/><text x="910" y="416" text-anchor="middle" class="lbl">事件</text><line x1="300" y1="560" x2="190" y2="620" stroke="#555" stroke-width="1.5"  marker-end="url(#a)"/><line x1="400" y1="560" x2="430" y2="620" stroke="#555" stroke-width="1.5"  marker-end="url(#a)"/><line x1="700" y1="560" x2="670" y2="620" stroke="#555" stroke-width="1.5"  marker-end="url(#a)"/><line x1="900" y1="560" x2="910" y2="620" stroke="#555" stroke-width="1.5"  marker-end="url(#a)"/><line x1="700" y1="730" x2="700" y2="800" stroke="#555" stroke-width="1.5" stroke-dasharray="5,4" marker-end="url(#ad)"/></svg>