<svg xmlns="http://www.w3.org/2000/svg" width="1280" height="820" viewBox="0 0 1280 820">
  <defs>
    <marker id="a" markerWidth="10" markerHeight="10" refX="9" refY="3" orient="auto"><path d="M0,0 L0,6 L9,3 z" fill="#555"/></marker>
    <marker id="ad" markerWidth="10" markerHeight="10" refX="9" refY="3" orient="auto"><path d="M0,0 L0,6 L9,3 z" fill="#999"/></marker>
  </defs>
  <rect width="1280" height="820" fill="#FFFFFF"/>
  <style>
    text { font-family: 'Microsoft YaHei','SimHei','PingFang SC','Noto Sans CJK SC',sans-serif; }
    .mono { font-family: 'Consolas','Courier New',monospace; }
    .title { font-size: 18px; font-weight: 700; fill: #1B1B1B; }
    .subtitle { font-size: 12px; fill: #555; }
    .h { font-size: 14px; font-weight: 600; }
    .b { font-size: 13px; }
    .s { font-size: 11px; fill: #555; }
    .lbl { font-size: 11px; fill: #555; }
  </style><text x="20" y="36" class="title">图3 · 后端组件架构图（领域模块与事件总线）</text><rect x="240" y="70" width="800" height="60" rx="8" ry="8" fill="#FFF8E1" stroke="#F4B942" stroke-width="1.5"/><text x="640" y="96" text-anchor="middle" class="h" fill="#1B1B1B">API 层（Controllers）</text><text x="640" y="112" text-anchor="middle" class="s" fill="#1B1B1B">/api/v1/auth  /users  /adoptions  /commands  /lives  /orders ...</text><rect x="240" y="150" width="800" height="60" rx="8" ry="8" fill="#E8F4EA" stroke="#4CA777" stroke-width="1.5"/><text x="640" y="176" text-anchor="middle" class="h" fill="#1B1B1B">共享基础设施（Base）</text><text x="640" y="192" text-anchor="middle" class="s" fill="#1B1B1B">鉴权拦截 · 统一异常 · 审计日志 · 参数校验 · 分页 · 幂等中间件</text><rect x="60" y="240" width="380" height="150" rx="6" ry="6" fill="rgba(76,167,119,0.04)" stroke="#BDBDBD" stroke-width="1" stroke-dasharray="4,3"/>
  <text x="70" y="256" class="s" font-weight="600" fill="#555">用户域 User</text><rect x="80" y="270" width="160" height="45" rx="4" ry="4" fill="#E8F4EA" stroke="#4CA777" stroke-width="1.5"/><text x="160" y="296.5" text-anchor="middle" class="h" fill="#1B1B1B">Auth / JWT</text><rect x="260" y="270" width="160" height="45" rx="4" ry="4" fill="#E8F4EA" stroke="#4CA777" stroke-width="1.5"/><text x="340" y="296.5" text-anchor="middle" class="h" fill="#1B1B1B">Profile</text><rect x="80" y="325" width="160" height="45" rx="4" ry="4" fill="#E8F4EA" stroke="#4CA777" stroke-width="1.5"/><text x="160" y="351.5" text-anchor="middle" class="h" fill="#1B1B1B">Enterprise</text><rect x="260" y="325" width="160" height="45" rx="4" ry="4" fill="#E8F4EA" stroke="#4CA777" stroke-width="1.5"/><text x="340" y="351.5" text-anchor="middle" class="h" fill="#1B1B1B">RBAC</text><rect x="450" y="240" width="380" height="150" rx="6" ry="6" fill="rgba(76,167,119,0.04)" stroke="#BDBDBD" stroke-width="1" stroke-dasharray="4,3"/>
  <text x="460" y="256" class="s" font-weight="600" fill="#555">农场域 Farm</text><rect x="470" y="270" width="160" height="45" rx="4" ry="4" fill="#E8F4EA" stroke="#4CA777" stroke-width="1.5"/><text x="550" y="296.5" text-anchor="middle" class="h" fill="#1B1B1B">Base / Plot</text><rect x="650" y="270" width="160" height="45" rx="4" ry="4" fill="#E8F4EA" stroke="#4CA777" stroke-width="1.5"/><text x="730" y="296.5" text-anchor="middle" class="h" fill="#1B1B1B">Crop</text><rect x="470" y="325" width="160" height="45" rx="4" ry="4" fill="#E8F4EA" stroke="#4CA777" stroke-width="1.5"/><text x="550" y="351.5" text-anchor="middle" class="h" fill="#1B1B1B">Plan</text><rect x="650" y="325" width="160" height="45" rx="4" ry="4" fill="#E8F4EA" stroke="#4CA777" stroke-width="1.5"/><text x="730" y="351.5" text-anchor="middle" class="h" fill="#1B1B1B">Command / Growth</text><rect x="840" y="240" width="380" height="150" rx="6" ry="6" fill="rgba(76,167,119,0.04)" stroke="#BDBDBD" stroke-width="1" stroke-dasharray="4,3"/>
  <text x="850" y="256" class="s" font-weight="600" fill="#555">交易域 Order</text><rect x="860" y="270" width="160" height="45" rx="4" ry="4" fill="#E8F4EA" stroke="#4CA777" stroke-width="1.5"/><text x="940" y="296.5" text-anchor="middle" class="h" fill="#1B1B1B">Adoption</text><rect x="1040" y="270" width="160" height="45" rx="4" ry="4" fill="#E8F4EA" stroke="#4CA777" stroke-width="1.5"/><text x="1120" y="296.5" text-anchor="middle" class="h" fill="#1B1B1B">Shop Order</text><rect x="860" y="325" width="160" height="45" rx="4" ry="4" fill="#E8F4EA" stroke="#4CA777" stroke-width="1.5"/><text x="940" y="351.5" text-anchor="middle" class="h" fill="#1B1B1B">Payment / Refund</text><rect x="1040" y="325" width="160" height="45" rx="4" ry="4" fill="#E8F4EA" stroke="#4CA777" stroke-width="1.5"/><text x="1120" y="351.5" text-anchor="middle" class="h" fill="#1B1B1B">Shipment</text><rect x="240" y="430" width="800" height="60" rx="8" ry="8" fill="#FFF8E1" stroke="#F4B942" stroke-width="1.5"/><text x="640" y="456" text-anchor="middle" class="h" fill="#1B1B1B">领域事件总线（In-Process EventBus / RabbitMQ）</text><text x="640" y="472" text-anchor="middle" class="s" fill="#1B1B1B">UserRegistered · AdoptionCreated · CommandCompleted · OrderPaid · DeviceOffline ...</text><rect x="60" y="520" width="380" height="240" rx="6" ry="6" fill="rgba(76,167,119,0.04)" stroke="#BDBDBD" stroke-width="1" stroke-dasharray="4,3"/>
  <text x="70" y="536" class="s" font-weight="600" fill="#555">通知 &amp; 内容</text><rect x="80" y="550" width="160" height="45" rx="4" ry="4" fill="#E8F4EA" stroke="#4CA777" stroke-width="1.5"/><text x="160" y="568.5" text-anchor="middle" class="h" fill="#1B1B1B">Notify</text><text x="160" y="584.5" text-anchor="middle" class="s" fill="#1B1B1B">订阅消息</text><rect x="260" y="550" width="160" height="45" rx="4" ry="4" fill="#E8F4EA" stroke="#4CA777" stroke-width="1.5"/><text x="340" y="568.5" text-anchor="middle" class="h" fill="#1B1B1B">Content</text><text x="340" y="584.5" text-anchor="middle" class="s" fill="#1B1B1B">图文素材</text><rect x="80" y="610" width="160" height="45" rx="4" ry="4" fill="#E8F4EA" stroke="#4CA777" stroke-width="1.5"/><text x="160" y="628.5" text-anchor="middle" class="h" fill="#1B1B1B">Live</text><text x="160" y="644.5" text-anchor="middle" class="s" fill="#1B1B1B">直播间</text><rect x="260" y="610" width="160" height="45" rx="4" ry="4" fill="#E8F4EA" stroke="#4CA777" stroke-width="1.5"/><text x="340" y="628.5" text-anchor="middle" class="h" fill="#1B1B1B">Campaign</text><text x="340" y="644.5" text-anchor="middle" class="s" fill="#1B1B1B">营销活动</text><rect x="80" y="670" width="160" height="45" rx="4" ry="4" fill="#E8F4EA" stroke="#4CA777" stroke-width="1.5"/><text x="160" y="688.5" text-anchor="middle" class="h" fill="#1B1B1B">Coupon</text><text x="160" y="704.5" text-anchor="middle" class="s" fill="#1B1B1B">优惠券</text><rect x="260" y="670" width="160" height="45" rx="4" ry="4" fill="#E8F4EA" stroke="#4CA777" stroke-width="1.5"/><text x="340" y="688.5" text-anchor="middle" class="h" fill="#1B1B1B">BulletChat</text><text x="340" y="704.5" text-anchor="middle" class="s" fill="#1B1B1B">评论/弹幕</text><rect x="450" y="520" width="380" height="240" rx="6" ry="6" fill="rgba(76,167,119,0.04)" stroke="#BDBDBD" stroke-width="1" stroke-dasharray="4,3"/>
  <text x="460" y="536" class="s" font-weight="600" fill="#555">设备 &amp; 告警</text><rect x="470" y="550" width="160" height="45" rx="4" ry="4" fill="#E8F4EA" stroke="#4CA777" stroke-width="1.5"/><text x="550" y="568.5" text-anchor="middle" class="h" fill="#1B1B1B">Device</text><text x="550" y="584.5" text-anchor="middle" class="s" fill="#1B1B1B">摄像头/传感器</text><rect x="650" y="550" width="160" height="45" rx="4" ry="4" fill="#E8F4EA" stroke="#4CA777" stroke-width="1.5"/><text x="730" y="568.5" text-anchor="middle" class="h" fill="#1B1B1B">Alert</text><text x="730" y="584.5" text-anchor="middle" class="s" fill="#1B1B1B">离线/超阈值</text><rect x="470" y="610" width="160" height="45" rx="4" ry="4" fill="#E8F4EA" stroke="#4CA777" stroke-width="1.5"/><text x="550" y="628.5" text-anchor="middle" class="h" fill="#1B1B1B">Heartbeat</text><text x="550" y="644.5" text-anchor="middle" class="s" fill="#1B1B1B">心跳上报</text><rect x="650" y="610" width="160" height="45" rx="4" ry="4" fill="#E8F4EA" stroke="#4CA777" stroke-width="1.5"/><text x="730" y="628.5" text-anchor="middle" class="h" fill="#1B1B1B">OTA</text><text x="730" y="644.5" text-anchor="middle" class="s" fill="#1B1B1B">固件升级(v2)</text><rect x="840" y="520" width="380" height="240" rx="6" ry="6" fill="rgba(76,167,119,0.04)" stroke="#BDBDBD" stroke-width="1" stroke-dasharray="4,3"/>
  <text x="850" y="536" class="s" font-weight="600" fill="#555">财务 &amp; 报表</text><rect x="860" y="550" width="160" height="45" rx="4" ry="4" fill="#E8F4EA" stroke="#4CA777" stroke-width="1.5"/><text x="940" y="568.5" text-anchor="middle" class="h" fill="#1B1B1B">Billing</text><text x="940" y="584.5" text-anchor="middle" class="s" fill="#1B1B1B">流水</text><rect x="1040" y="550" width="160" height="45" rx="4" ry="4" fill="#E8F4EA" stroke="#4CA777" stroke-width="1.5"/><text x="1120" y="568.5" text-anchor="middle" class="h" fill="#1B1B1B">Invoice</text><text x="1120" y="584.5" text-anchor="middle" class="s" fill="#1B1B1B">发票</text><rect x="860" y="610" width="160" height="45" rx="4" ry="4" fill="#E8F4EA" stroke="#4CA777" stroke-width="1.5"/><text x="940" y="628.5" text-anchor="middle" class="h" fill="#1B1B1B">Recon</text><text x="940" y="644.5" text-anchor="middle" class="s" fill="#1B1B1B">对账</text><rect x="1040" y="610" width="160" height="45" rx="4" ry="4" fill="#E8F4EA" stroke="#4CA777" stroke-width="1.5"/><text x="1120" y="628.5" text-anchor="middle" class="h" fill="#1B1B1B">Export</text><text x="1120" y="644.5" text-anchor="middle" class="s" fill="#1B1B1B">导出 Excel</text><rect x="860" y="670" width="340" height="45" rx="4" ry="4" fill="#E8F4EA" stroke="#4CA777" stroke-width="1.5"/><text x="1030" y="696.5" text-anchor="middle" class="h" fill="#1B1B1B">BI / Dashboard</text><line x1="640" y1="130" x2="640" y2="150" stroke="#555" stroke-width="1.5"  marker-end="url(#a)"/><line x1="640" y1="210" x2="640" y2="240" stroke="#555" stroke-width="1.5"  marker-end="url(#a)"/><line x1="250" y1="390" x2="640" y2="430" stroke="#555" stroke-width="1.5"  marker-end="url(#a)"/><line x1="640" y1="390" x2="640" y2="430" stroke="#555" stroke-width="1.5"  marker-end="url(#a)"/><line x1="1030" y1="390" x2="640" y2="430" stroke="#555" stroke-width="1.5"  marker-end="url(#a)"/><line x1="250" y1="490" x2="240" y2="520" stroke="#555" stroke-width="1.5" stroke-dasharray="5,4" marker-end="url(#ad)"/><rect x="233" y="490" width="24" height="14" fill="white" opacity="0.92"/><text x="245" y="501" text-anchor="middle" class="lbl">事件</text><line x1="640" y1="490" x2="640" y2="520" stroke="#555" stroke-width="1.5" stroke-dasharray="5,4" marker-end="url(#ad)"/><rect x="628" y="490" width="24" height="14" fill="white" opacity="0.92"/><text x="640" y="501" text-anchor="middle" class="lbl">事件</text><line x1="1030" y1="490" x2="1030" y2="520" stroke="#555" stroke-width="1.5" stroke-dasharray="5,4" marker-end="url(#ad)"/><rect x="1018" y="490" width="24" height="14" fill="white" opacity="0.92"/><text x="1030" y="501" text-anchor="middle" class="lbl">事件</text></svg>