<svg xmlns="http://www.w3.org/2000/svg" width="1400" height="900" viewBox="0 0 1400 900">
  <defs>
    <marker id="a" markerWidth="10" markerHeight="10" refX="9" refY="3" orient="auto"><path d="M0,0 L0,6 L9,3 z" fill="#555"/></marker>
    <marker id="ad" markerWidth="10" markerHeight="10" refX="9" refY="3" orient="auto"><path d="M0,0 L0,6 L9,3 z" fill="#999"/></marker>
  </defs>
  <rect width="1400" height="900" fill="#FFFFFF"/>
  <style>
    text { font-family: 'Microsoft YaHei','SimHei','PingFang SC','Noto Sans CJK SC',sans-serif; }
    .mono { font-family: 'Consolas','Courier New',monospace; }
    .title { font-size: 18px; font-weight: 700; fill: #1B1B1B; }
    .subtitle { font-size: 12px; fill: #555; }
    .h { font-size: 14px; font-weight: 600; }
    .b { font-size: 13px; }
    .s { font-size: 11px; fill: #555; }
    .lbl { font-size: 11px; fill: #555; }
  </style><text x="20" y="36" class="title">图4 · 生产环境部署拓扑</text><rect x="560" y="60" width="280" height="60" rx="8" ry="8" fill="#E3F2FD" stroke="#1976D2" stroke-width="1.5"/><text x="700" y="86" text-anchor="middle" class="h" fill="#1B1B1B">用户终端</text><text x="700" y="102" text-anchor="middle" class="s" fill="#1B1B1B">小程序 / 浏览器</text><rect x="480" y="150" width="440" height="60" rx="8" ry="8" fill="#FFF8E1" stroke="#F4B942" stroke-width="1.5"/><text x="700" y="176" text-anchor="middle" class="h" fill="#1B1B1B">CDN / WAF / DDoS 清洗</text><text x="700" y="192" text-anchor="middle" class="s" fill="#1B1B1B">阿里云 / 腾讯云 边缘节点</text><rect x="540" y="240" width="320" height="50" rx="8" ry="8" fill="#FFF8E1" stroke="#F4B942" stroke-width="1.5"/><text x="700" y="269" text-anchor="middle" class="h" fill="#1B1B1B">SLB 负载均衡</text><rect x="140" y="330" width="360" height="70" rx="8" ry="8" fill="#E8F4EA" stroke="#4CA777" stroke-width="1.5"/><text x="320" y="361" text-anchor="middle" class="h" fill="#1B1B1B">Web 静态资源（Nginx）</text><text x="320" y="377" text-anchor="middle" class="s" fill="#1B1B1B">运营后台 + 落地页  (OSS + CDN)</text><rect x="880" y="330" width="380" height="70" rx="8" ry="8" fill="#E8F4EA" stroke="#4CA777" stroke-width="1.5"/><text x="1070" y="361" text-anchor="middle" class="h" fill="#1B1B1B">API 网关（APISIX）</text><text x="1070" y="377" text-anchor="middle" class="s" fill="#1B1B1B">2 实例 · 限流 · JWT · 灰度</text><rect x="820" y="420" width="500" height="220" rx="6" ry="6" fill="rgba(76,167,119,0.04)" stroke="#BDBDBD" stroke-width="1" stroke-dasharray="4,3"/>
  <text x="830" y="436" class="s" font-weight="600" fill="#555">K8s 集群（ACK / TKE，3 Node × 4c8g）</text><rect x="850" y="450" width="200" height="55" rx="4" ry="4" fill="#E8F4EA" stroke="#4CA777" stroke-width="1.5"/><text x="950" y="473.5" text-anchor="middle" class="h" fill="#1B1B1B">backend-api</text><text x="950" y="489.5" text-anchor="middle" class="s" fill="#1B1B1B">2+ Pod / HPA</text><rect x="1080" y="450" width="200" height="55" rx="4" ry="4" fill="#E8F4EA" stroke="#4CA777" stroke-width="1.5"/><text x="1180" y="473.5" text-anchor="middle" class="h" fill="#1B1B1B">iot-bridge</text><text x="1180" y="489.5" text-anchor="middle" class="s" fill="#1B1B1B">1 Pod</text><rect x="850" y="520" width="200" height="55" rx="4" ry="4" fill="#E8F4EA" stroke="#4CA777" stroke-width="1.5"/><text x="950" y="543.5" text-anchor="middle" class="h" fill="#1B1B1B">notify-worker</text><text x="950" y="559.5" text-anchor="middle" class="s" fill="#1B1B1B">1-2 Pod</text><rect x="1080" y="520" width="200" height="55" rx="4" ry="4" fill="#E8F4EA" stroke="#4CA777" stroke-width="1.5"/><text x="1180" y="543.5" text-anchor="middle" class="h" fill="#1B1B1B">scheduler</text><text x="1180" y="559.5" text-anchor="middle" class="s" fill="#1B1B1B">1 Pod · xxl-job</text><rect x="140" y="660" width="1180" height="220" rx="6" ry="6" fill="rgba(76,167,119,0.04)" stroke="#BDBDBD" stroke-width="1" stroke-dasharray="4,3"/>
  <text x="150" y="676" class="s" font-weight="600" fill="#555">数据 &amp; 中间件（云托管，跨 AZ）</text><rect x="170" y="690" width="200" height="60" rx="8" ry="8" fill="#F3E5F5" stroke="#7B1FA2" stroke-width="1.5"/><text x="270" y="716" text-anchor="middle" class="h" fill="#1B1B1B">云 RDS MySQL</text><text x="270" y="732" text-anchor="middle" class="s" fill="#1B1B1B">主从 · 2c4g</text><rect x="400" y="690" width="200" height="60" rx="8" ry="8" fill="#F3E5F5" stroke="#7B1FA2" stroke-width="1.5"/><text x="500" y="716" text-anchor="middle" class="h" fill="#1B1B1B">云 Redis</text><text x="500" y="732" text-anchor="middle" class="s" fill="#1B1B1B">哨兵 · 1G</text><rect x="630" y="690" width="200" height="60" rx="8" ry="8" fill="#F3E5F5" stroke="#7B1FA2" stroke-width="1.5"/><text x="730" y="716" text-anchor="middle" class="h" fill="#1B1B1B">云 MQ RabbitMQ</text><text x="730" y="732" text-anchor="middle" class="s" fill="#1B1B1B">3 节点</text><rect x="860" y="690" width="200" height="60" rx="8" ry="8" fill="#F3E5F5" stroke="#7B1FA2" stroke-width="1.5"/><text x="960" y="716" text-anchor="middle" class="h" fill="#1B1B1B">OSS / COS</text><text x="960" y="732" text-anchor="middle" class="s" fill="#1B1B1B">图/视频/备份</text><rect x="1090" y="690" width="200" height="60" rx="8" ry="8" fill="#F3E5F5" stroke="#7B1FA2" stroke-width="1.5"/><text x="1190" y="716" text-anchor="middle" class="h" fill="#1B1B1B">ES / 日志</text><text x="1190" y="732" text-anchor="middle" class="s" fill="#1B1B1B">v1 引入</text><rect x="170" y="780" width="320" height="60" rx="8" ry="8" fill="#FFF8E1" stroke="#F4B942" stroke-width="1.5"/><text x="330" y="806" text-anchor="middle" class="h" fill="#1B1B1B">监控：Prometheus + Grafana</text><text x="330" y="822" text-anchor="middle" class="s" fill="#1B1B1B">业务/系统指标，告警 → 企微/钉钉</text><rect x="510" y="780" width="320" height="60" rx="8" ry="8" fill="#FFF8E1" stroke="#F4B942" stroke-width="1.5"/><text x="670" y="814" text-anchor="middle" class="h" fill="#1B1B1B">错误：Sentry（前端） + SkyWalking（链路）</text><rect x="850" y="780" width="440" height="60" rx="8" ry="8" fill="#FFF8E1" stroke="#F4B942" stroke-width="1.5"/><text x="1070" y="806" text-anchor="middle" class="h" fill="#1B1B1B">日志：SLS / ELK</text><text x="1070" y="822" text-anchor="middle" class="s" fill="#1B1B1B">业务日志 90 天 · 审计 6 月 · 财务 5 年</text><line x1="700" y1="120" x2="700" y2="150" stroke="#555" stroke-width="1.5"  marker-end="url(#a)"/><line x1="700" y1="210" x2="700" y2="240" stroke="#555" stroke-width="1.5"  marker-end="url(#a)"/><line x1="600" y1="290" x2="320" y2="330" stroke="#555" stroke-width="1.5"  marker-end="url(#a)"/><line x1="800" y1="290" x2="1070" y2="330" stroke="#555" stroke-width="1.5"  marker-end="url(#a)"/><line x1="1070" y1="400" x2="1070" y2="420" stroke="#555" stroke-width="1.5"  marker-end="url(#a)"/><line x1="950" y1="640" x2="270" y2="690" stroke="#555" stroke-width="1.5" stroke-dasharray="5,4" marker-end="url(#ad)"/><line x1="1050" y1="640" x2="500" y2="690" stroke="#555" stroke-width="1.5" stroke-dasharray="5,4" marker-end="url(#ad)"/><line x1="1150" y1="640" x2="730" y2="690" stroke="#555" stroke-width="1.5" stroke-dasharray="5,4" marker-end="url(#ad)"/><line x1="1250" y1="640" x2="960" y2="690" stroke="#555" stroke-width="1.5" stroke-dasharray="5,4" marker-end="url(#ad)"/></svg>