<svg xmlns="http://www.w3.org/2000/svg" width="1280" height="720" viewBox="0 0 1280 720">
  <defs>
    <marker id="a" markerWidth="10" markerHeight="10" refX="9" refY="3" orient="auto"><path d="M0,0 L0,6 L9,3 z" fill="#555"/></marker>
    <marker id="ad" markerWidth="10" markerHeight="10" refX="9" refY="3" orient="auto"><path d="M0,0 L0,6 L9,3 z" fill="#999"/></marker>
  </defs>
  <rect width="1280" height="720" fill="#FFFFFF"/>
  <style>
    text { font-family: 'Microsoft YaHei','SimHei','PingFang SC','Noto Sans CJK SC',sans-serif; }
    .mono { font-family: 'Consolas','Courier New',monospace; }
    .title { font-size: 18px; font-weight: 700; fill: #1B1B1B; }
    .subtitle { font-size: 12px; fill: #555; }
    .h { font-size: 14px; font-weight: 600; }
    .b { font-size: 13px; }
    .s { font-size: 11px; fill: #555; }
    .lbl { font-size: 11px; fill: #555; }
  </style><text x="20" y="36" class="title">图5 · 物联网（IoT）接入架构</text><rect x="40" y="70" width="420" height="280" rx="6" ry="6" fill="rgba(76,167,119,0.04)" stroke="#BDBDBD" stroke-width="1" stroke-dasharray="4,3"/>
  <text x="50" y="86" class="s" font-weight="600" fill="#555">田间设备</text><rect x="70" y="110" width="160" height="80" rx="8" ry="8" fill="#FFEBEE" stroke="#D84315" stroke-width="1.5"/><text x="150" y="138" text-anchor="middle" class="h" fill="#1B1B1B">4G 摄像头 ×N</text><text x="150" y="154" text-anchor="middle" class="s" fill="#1B1B1B">萤石 C6 / 海康</text><text x="150" y="170" text-anchor="middle" class="s" fill="#1B1B1B">1080p · 夜视 · 云台</text><rect x="260" y="110" width="160" height="80" rx="8" ry="8" fill="#FFEBEE" stroke="#D84315" stroke-width="1.5"/><text x="340" y="138" text-anchor="middle" class="h" fill="#1B1B1B">土壤 / 光照传感器</text><text x="340" y="154" text-anchor="middle" class="s" fill="#1B1B1B">温湿 · 光 · PH</text><text x="340" y="170" text-anchor="middle" class="s" fill="#1B1B1B">LoRa 通信</text><rect x="70" y="220" width="350" height="80" rx="8" ry="8" fill="#FFEBEE" stroke="#D84315" stroke-width="1.5"/><text x="245" y="256" text-anchor="middle" class="h" fill="#1B1B1B">LoRa 网关（4G 聚合路由）</text><text x="245" y="272" text-anchor="middle" class="s" fill="#1B1B1B">设备汇聚 · MQTT 上行</text><rect x="540" y="140" width="220" height="80" rx="8" ry="8" fill="#EFEBE9" stroke="#6D4C41" stroke-width="1.5"/><text x="650" y="168" text-anchor="middle" class="h" fill="#1B1B1B">萤石云 OpenAPI</text><text x="650" y="184" text-anchor="middle" class="s" fill="#1B1B1B">设备注册 · 取流</text><text x="650" y="200" text-anchor="middle" class="s" fill="#1B1B1B">HLS/FLV URL</text><rect x="820" y="140" width="220" height="80" rx="8" ry="8" fill="#E8F4EA" stroke="#4CA777" stroke-width="1.5"/><text x="930" y="168" text-anchor="middle" class="h" fill="#1B1B1B">IoT 接入服务</text><text x="930" y="184" text-anchor="middle" class="s" fill="#1B1B1B">Node.js + MQTT</text><text x="930" y="200" text-anchor="middle" class="s" fill="#1B1B1B">WebSocket 转发</text><rect x="540" y="260" width="700" height="120" rx="6" ry="6" fill="rgba(76,167,119,0.04)" stroke="#BDBDBD" stroke-width="1" stroke-dasharray="4,3"/>
  <text x="550" y="276" class="s" font-weight="600" fill="#555">后端服务域</text><rect x="570" y="290" width="160" height="70" rx="8" ry="8" fill="#E8F4EA" stroke="#4CA777" stroke-width="1.5"/><text x="650" y="321" text-anchor="middle" class="h" fill="#1B1B1B">Device 域</text><text x="650" y="337" text-anchor="middle" class="s" fill="#1B1B1B">设备/心跳/SN</text><rect x="750" y="290" width="160" height="70" rx="8" ry="8" fill="#E8F4EA" stroke="#4CA777" stroke-width="1.5"/><text x="830" y="321" text-anchor="middle" class="h" fill="#1B1B1B">Command 域</text><text x="830" y="337" text-anchor="middle" class="s" fill="#1B1B1B">指令工单</text><rect x="930" y="290" width="160" height="70" rx="8" ry="8" fill="#E8F4EA" stroke="#4CA777" stroke-width="1.5"/><text x="1010" y="321" text-anchor="middle" class="h" fill="#1B1B1B">Live 域</text><text x="1010" y="337" text-anchor="middle" class="s" fill="#1B1B1B">直播地址</text><rect x="1110" y="290" width="110" height="70" rx="8" ry="8" fill="#E8F4EA" stroke="#4CA777" stroke-width="1.5"/><text x="1165" y="321" text-anchor="middle" class="h" fill="#1B1B1B">Alert 域</text><text x="1165" y="337" text-anchor="middle" class="s" fill="#1B1B1B">告警</text><rect x="540" y="420" width="700" height="50" rx="8" ry="8" fill="#FFF8E1" stroke="#F4B942" stroke-width="1.5"/><text x="890" y="449" text-anchor="middle" class="h" fill="#1B1B1B">事件总线（RabbitMQ）</text><rect x="540" y="510" width="210" height="80" rx="8" ry="8" fill="#E8F4EA" stroke="#4CA777" stroke-width="1.5"/><text x="645" y="538" text-anchor="middle" class="h" fill="#1B1B1B">告警服务</text><text x="645" y="554" text-anchor="middle" class="s" fill="#1B1B1B">离线 · 超流量</text><text x="645" y="570" text-anchor="middle" class="s" fill="#1B1B1B">→ 企微 / 短信</text><rect x="780" y="510" width="210" height="80" rx="8" ry="8" fill="#E8F4EA" stroke="#4CA777" stroke-width="1.5"/><text x="885" y="538" text-anchor="middle" class="h" fill="#1B1B1B">设备看板</text><text x="885" y="554" text-anchor="middle" class="s" fill="#1B1B1B">在线率 · 心跳</text><text x="885" y="570" text-anchor="middle" class="s" fill="#1B1B1B">场长 Web</text><rect x="1020" y="510" width="220" height="80" rx="8" ry="8" fill="#E8F4EA" stroke="#4CA777" stroke-width="1.5"/><text x="1130" y="538" text-anchor="middle" class="h" fill="#1B1B1B">用户推送</text><text x="1130" y="554" text-anchor="middle" class="s" fill="#1B1B1B">&quot;您的田已浇水&quot;</text><text x="1130" y="570" text-anchor="middle" class="s" fill="#1B1B1B">订阅消息</text><line x1="230" y1="150" x2="540" y2="160" stroke="#555" stroke-width="1.5"  marker-end="url(#a)"/><rect x="345" y="140" width="80" height="14" fill="white" opacity="0.92"/><text x="385" y="151" text-anchor="middle" class="lbl">RTMP/ISUP</text><line x1="260" y1="300" x2="540" y2="200" stroke="#555" stroke-width="1.5"  marker-end="url(#a)"/><rect x="380" y="235" width="40" height="14" fill="white" opacity="0.92"/><text x="400" y="246" text-anchor="middle" class="lbl">MQTT</text><line x1="760" y1="180" x2="820" y2="180" stroke="#555" stroke-width="1.5"  marker-end="url(#a)"/><rect x="766" y="165" width="48" height="14" fill="white" opacity="0.92"/><text x="790" y="176" text-anchor="middle" class="lbl">Token</text><line x1="930" y1="220" x2="770" y2="260" stroke="#555" stroke-width="1.5"  marker-end="url(#a)"/><line x1="930" y1="220" x2="930" y2="260" stroke="#555" stroke-width="1.5"  marker-end="url(#a)"/><line x1="930" y1="380" x2="890" y2="420" stroke="#555" stroke-width="1.5"  marker-end="url(#a)"/><line x1="640" y1="470" x2="640" y2="510" stroke="#555" stroke-width="1.5"  marker-end="url(#a)"/><line x1="890" y1="470" x2="890" y2="510" stroke="#555" stroke-width="1.5"  marker-end="url(#a)"/><line x1="1130" y1="470" x2="1130" y2="510" stroke="#555" stroke-width="1.5"  marker-end="url(#a)"/></svg>