<svg xmlns="http://www.w3.org/2000/svg" width="1280" height="700" viewBox="0 0 1280 700">
  <defs>
    <marker id="a" markerWidth="10" markerHeight="10" refX="9" refY="3" orient="auto"><path d="M0,0 L0,6 L9,3 z" fill="#555"/></marker>
    <marker id="ad" markerWidth="10" markerHeight="10" refX="9" refY="3" orient="auto"><path d="M0,0 L0,6 L9,3 z" fill="#999"/></marker>
  </defs>
  <rect width="1280" height="700" fill="#FFFFFF"/>
  <style>
    text { font-family: 'Microsoft YaHei','SimHei','PingFang SC','Noto Sans CJK SC',sans-serif; }
    .mono { font-family: 'Consolas','Courier New',monospace; }
    .title { font-size: 18px; font-weight: 700; fill: #1B1B1B; }
    .subtitle { font-size: 12px; fill: #555; }
    .h { font-size: 14px; font-weight: 600; }
    .b { font-size: 13px; }
    .s { font-size: 11px; fill: #555; }
    .lbl { font-size: 11px; fill: #555; }
  </style><text x="20" y="36" class="title">图6 · 直播与内容分发链路</text><rect x="60" y="100" width="220" height="80" rx="8" ry="8" fill="#E3F2FD" stroke="#1976D2" stroke-width="1.5"/><text x="170" y="128" text-anchor="middle" class="h" fill="#1B1B1B">人工直播（手机）</text><text x="170" y="144" text-anchor="middle" class="s" fill="#1B1B1B">大疆云台 + 麦克风</text><text x="170" y="160" text-anchor="middle" class="s" fill="#1B1B1B">RTMP 推流</text><rect x="60" y="260" width="220" height="80" rx="8" ry="8" fill="#E3F2FD" stroke="#1976D2" stroke-width="1.5"/><text x="170" y="288" text-anchor="middle" class="h" fill="#1B1B1B">慢直播摄像头</text><text x="170" y="304" text-anchor="middle" class="s" fill="#1B1B1B">萤石 C6 太阳能</text><text x="170" y="320" text-anchor="middle" class="s" fill="#1B1B1B">24h 自动推流</text><rect x="360" y="100" width="260" height="80" rx="8" ry="8" fill="#EFEBE9" stroke="#6D4C41" stroke-width="1.5"/><text x="490" y="136" text-anchor="middle" class="h" fill="#1B1B1B">腾讯云直播 (LVB)</text><text x="490" y="152" text-anchor="middle" class="s" fill="#1B1B1B">推拉流 · 截图回调</text><rect x="360" y="260" width="260" height="80" rx="8" ry="8" fill="#EFEBE9" stroke="#6D4C41" stroke-width="1.5"/><text x="490" y="296" text-anchor="middle" class="h" fill="#1B1B1B">萤石云服务</text><text x="490" y="312" text-anchor="middle" class="s" fill="#1B1B1B">代理拉流 · Token</text><rect x="700" y="180" width="220" height="80" rx="8" ry="8" fill="#FFF8E1" stroke="#F4B942" stroke-width="1.5"/><text x="810" y="216" text-anchor="middle" class="h" fill="#1B1B1B">CDN 分发</text><text x="810" y="232" text-anchor="middle" class="s" fill="#1B1B1B">边缘节点 · 就近分发</text><rect x="360" y="400" width="560" height="90" rx="8" ry="8" fill="#E8F4EA" stroke="#4CA777" stroke-width="1.5"/><text x="640" y="433" text-anchor="middle" class="h" fill="#1B1B1B">后端 Live 服务</text><text x="640" y="449" text-anchor="middle" class="s" fill="#1B1B1B">直播间状态机 · 商品弹窗调度</text><text x="640" y="465" text-anchor="middle" class="s" fill="#1B1B1B">点赞/评论聚合 · 转化埋点</text><rect x="1000" y="100" width="220" height="80" rx="8" ry="8" fill="#E3F2FD" stroke="#1976D2" stroke-width="1.5"/><text x="1110" y="136" text-anchor="middle" class="h" fill="#1B1B1B">小程序 / H5</text><text x="1110" y="152" text-anchor="middle" class="s" fill="#1B1B1B">HLS / FLV 播放</text><rect x="1000" y="260" width="220" height="80" rx="8" ry="8" fill="#E3F2FD" stroke="#1976D2" stroke-width="1.5"/><text x="1110" y="296" text-anchor="middle" class="h" fill="#1B1B1B">Web / 大屏</text><text x="1110" y="312" text-anchor="middle" class="s" fill="#1B1B1B">回放管理</text><rect x="60" y="560" width="260" height="80" rx="8" ry="8" fill="#E8F4EA" stroke="#4CA777" stroke-width="1.5"/><text x="190" y="596" text-anchor="middle" class="h" fill="#1B1B1B">订单域</text><text x="190" y="612" text-anchor="middle" class="s" fill="#1B1B1B">商品下单 · 转化</text><rect x="360" y="560" width="260" height="80" rx="8" ry="8" fill="#E8F4EA" stroke="#4CA777" stroke-width="1.5"/><text x="490" y="596" text-anchor="middle" class="h" fill="#1B1B1B">内容域</text><text x="490" y="612" text-anchor="middle" class="s" fill="#1B1B1B">素材 · 回放切片</text><rect x="660" y="560" width="260" height="80" rx="8" ry="8" fill="#F3E5F5" stroke="#7B1FA2" stroke-width="1.5"/><text x="790" y="596" text-anchor="middle" class="h" fill="#1B1B1B">OSS</text><text x="790" y="612" text-anchor="middle" class="s" fill="#1B1B1B">回放 90 天</text><rect x="960" y="560" width="260" height="80" rx="8" ry="8" fill="#E8F4EA" stroke="#4CA777" stroke-width="1.5"/><text x="1090" y="596" text-anchor="middle" class="h" fill="#1B1B1B">BI / 看板</text><text x="1090" y="612" text-anchor="middle" class="s" fill="#1B1B1B">观看 / GMV / UV</text><line x1="280" y1="140" x2="360" y2="140" stroke="#555" stroke-width="1.5"  marker-end="url(#a)"/><rect x="300" y="125" width="40" height="14" fill="white" opacity="0.92"/><text x="320" y="136" text-anchor="middle" class="lbl">RTMP</text><line x1="280" y1="300" x2="360" y2="300" stroke="#555" stroke-width="1.5"  marker-end="url(#a)"/><rect x="300" y="285" width="40" height="14" fill="white" opacity="0.92"/><text x="320" y="296" text-anchor="middle" class="lbl">ISUP</text><line x1="620" y1="140" x2="700" y2="200" stroke="#555" stroke-width="1.5"  marker-end="url(#a)"/><rect x="644" y="155" width="32" height="14" fill="white" opacity="0.92"/><text x="660" y="166" text-anchor="middle" class="lbl">HLS</text><line x1="620" y1="300" x2="700" y2="240" stroke="#555" stroke-width="1.5"  marker-end="url(#a)"/><rect x="644" y="255" width="32" height="14" fill="white" opacity="0.92"/><text x="660" y="266" text-anchor="middle" class="lbl">HLS</text><line x1="920" y1="200" x2="1000" y2="140" stroke="#555" stroke-width="1.5"  marker-end="url(#a)"/><line x1="920" y1="240" x2="1000" y2="300" stroke="#555" stroke-width="1.5"  marker-end="url(#a)"/><line x1="490" y1="180" x2="490" y2="400" stroke="#555" stroke-width="1.5" stroke-dasharray="5,4" marker-end="url(#ad)"/><rect x="470" y="275" width="40" height="14" fill="white" opacity="0.92"/><text x="490" y="286" text-anchor="middle" class="lbl">开播回调</text><line x1="490" y1="260" x2="490" y2="400" stroke="#555" stroke-width="1.5" stroke-dasharray="5,4" marker-end="url(#ad)"/><rect x="466" y="315" width="48" height="14" fill="white" opacity="0.92"/><text x="490" y="326" text-anchor="middle" class="lbl">截图/状态</text><line x1="490" y1="490" x2="190" y2="560" stroke="#555" stroke-width="1.5"  marker-end="url(#a)"/><line x1="550" y1="490" x2="490" y2="560" stroke="#555" stroke-width="1.5"  marker-end="url(#a)"/><line x1="700" y1="490" x2="790" y2="560" stroke="#555" stroke-width="1.5"  marker-end="url(#a)"/><line x1="860" y1="490" x2="1090" y2="560" stroke="#555" stroke-width="1.5"  marker-end="url(#a)"/></svg>