<svg xmlns="http://www.w3.org/2000/svg" width="1400" height="760" viewBox="0 0 1400 760">
  <defs>
    <marker id="a" markerWidth="10" markerHeight="10" refX="9" refY="3" orient="auto"><path d="M0,0 L0,6 L9,3 z" fill="#555"/></marker>
    <marker id="ad" markerWidth="10" markerHeight="10" refX="9" refY="3" orient="auto"><path d="M0,0 L0,6 L9,3 z" fill="#999"/></marker>
  </defs>
  <rect width="1400" height="760" fill="#FFFFFF"/>
  <style>
    text { font-family: 'Microsoft YaHei','SimHei','PingFang SC','Noto Sans CJK SC',sans-serif; }
    .mono { font-family: 'Consolas','Courier New',monospace; }
    .title { font-size: 18px; font-weight: 700; fill: #1B1B1B; }
    .subtitle { font-size: 12px; fill: #555; }
    .h { font-size: 14px; font-weight: 600; }
    .b { font-size: 13px; }
    .s { font-size: 11px; fill: #555; }
    .lbl { font-size: 11px; fill: #555; }
  </style><text x="20" y="36" class="title">图7 · 时序图 · 用户认养下单</text><rect x="30" y="80" width="140" height="48" rx="8" ry="8" fill="#E8F4EA" stroke="#4CA777" stroke-width="1.5"/><text x="100" y="100" text-anchor="middle" class="h" fill="#1B1B1B">用户</text><text x="100" y="116" text-anchor="middle" class="s" fill="#1B1B1B">(客户端)</text><line x1="100" y1="128" x2="100" y2="700" stroke="#999" stroke-width="1" stroke-dasharray="3,3"/><rect x="230" y="80" width="140" height="48" rx="8" ry="8" fill="#E8F4EA" stroke="#4CA777" stroke-width="1.5"/><text x="300" y="100" text-anchor="middle" class="h" fill="#1B1B1B">小程序</text><text x="300" y="116" text-anchor="middle" class="s" fill="#1B1B1B">前端</text><line x1="300" y1="128" x2="300" y2="700" stroke="#999" stroke-width="1" stroke-dasharray="3,3"/><rect x="430" y="80" width="140" height="48" rx="8" ry="8" fill="#E8F4EA" stroke="#4CA777" stroke-width="1.5"/><text x="500" y="100" text-anchor="middle" class="h" fill="#1B1B1B">网关</text><text x="500" y="116" text-anchor="middle" class="s" fill="#1B1B1B">APISIX</text><line x1="500" y1="128" x2="500" y2="700" stroke="#999" stroke-width="1" stroke-dasharray="3,3"/><rect x="630" y="80" width="140" height="48" rx="8" ry="8" fill="#E8F4EA" stroke="#4CA777" stroke-width="1.5"/><text x="700" y="100" text-anchor="middle" class="h" fill="#1B1B1B">订单服务</text><text x="700" y="116" text-anchor="middle" class="s" fill="#1B1B1B">Backend</text><line x1="700" y1="128" x2="700" y2="700" stroke="#999" stroke-width="1" stroke-dasharray="3,3"/><rect x="830" y="80" width="140" height="48" rx="8" ry="8" fill="#E8F4EA" stroke="#4CA777" stroke-width="1.5"/><text x="900" y="100" text-anchor="middle" class="h" fill="#1B1B1B">库存/地块</text><text x="900" y="116" text-anchor="middle" class="s" fill="#1B1B1B">Redis+DB</text><line x1="900" y1="128" x2="900" y2="700" stroke="#999" stroke-width="1" stroke-dasharray="3,3"/><rect x="1030" y="80" width="140" height="48" rx="8" ry="8" fill="#E8F4EA" stroke="#4CA777" stroke-width="1.5"/><text x="1100" y="100" text-anchor="middle" class="h" fill="#1B1B1B">微信支付</text><text x="1100" y="116" text-anchor="middle" class="s" fill="#1B1B1B">External</text><line x1="1100" y1="128" x2="1100" y2="700" stroke="#999" stroke-width="1" stroke-dasharray="3,3"/><rect x="1230" y="80" width="140" height="48" rx="8" ry="8" fill="#E8F4EA" stroke="#4CA777" stroke-width="1.5"/><text x="1300" y="100" text-anchor="middle" class="h" fill="#1B1B1B">消息服务</text><text x="1300" y="116" text-anchor="middle" class="s" fill="#1B1B1B">Notify</text><line x1="1300" y1="128" x2="1300" y2="700" stroke="#999" stroke-width="1" stroke-dasharray="3,3"/><line x1="100" y1="170" x2="297" y2="170" stroke="#555" stroke-width="1.5"  marker-end="url(#a)"/><rect x="170.5" y="155" width="56" height="14" fill="white" opacity="0.92"/><text x="198.5" y="166" text-anchor="middle" class="lbl">(1)选套餐</text><line x1="300" y1="210" x2="497" y2="210" stroke="#555" stroke-width="1.5"  marker-end="url(#a)"/><rect x="354.5" y="195" width="88" height="14" fill="white" opacity="0.92"/><text x="398.5" y="206" text-anchor="middle" class="lbl">(2)  创建认养单</text><line x1="500" y1="250" x2="697" y2="250" stroke="#555" stroke-width="1.5"  marker-end="url(#a)"/><rect x="566.5" y="235" width="64" height="14" fill="white" opacity="0.92"/><text x="598.5" y="246" text-anchor="middle" class="lbl">(3)  路由</text><line x1="700" y1="290" x2="897" y2="290" stroke="#555" stroke-width="1.5"  marker-end="url(#a)"/><rect x="750.5" y="275" width="96" height="14" fill="white" opacity="0.92"/><text x="798.5" y="286" text-anchor="middle" class="lbl">(4)  锁地块/校验</text><line x1="900" y1="330" x2="703" y2="330" stroke="#555" stroke-width="1.5"  marker-end="url(#a)"/><rect x="757.5" y="315" width="88" height="14" fill="white" opacity="0.92"/><text x="801.5" y="326" text-anchor="middle" class="lbl">(5)  库存 OK</text><line x1="700" y1="370" x2="1097" y2="370" stroke="#555" stroke-width="1.5"  marker-end="url(#a)"/><rect x="826.5" y="355" width="144" height="14" fill="white" opacity="0.92"/><text x="898.5" y="366" text-anchor="middle" class="lbl">(6)  请求 prepay_id</text><line x1="1100" y1="410" x2="703" y2="410" stroke="#555" stroke-width="1.5"  marker-end="url(#a)"/><rect x="841.5" y="395" width="120" height="14" fill="white" opacity="0.92"/><text x="901.5" y="406" text-anchor="middle" class="lbl">(7)  prepay_id</text><line x1="700" y1="450" x2="303" y2="450" stroke="#555" stroke-width="1.5"  marker-end="url(#a)"/><rect x="453.5" y="435" width="96" height="14" fill="white" opacity="0.92"/><text x="501.5" y="446" text-anchor="middle" class="lbl">(8)  返回支付参数</text><line x1="300" y1="490" x2="103" y2="490" stroke="#555" stroke-width="1.5"  marker-end="url(#a)"/><rect x="153.5" y="475" width="96" height="14" fill="white" opacity="0.92"/><text x="201.5" y="486" text-anchor="middle" class="lbl">(9)  唤起微信支付</text><line x1="100" y1="530" x2="1097" y2="530" stroke="#555" stroke-width="1.5"  marker-end="url(#a)"/><rect x="546.5" y="515" width="104" height="14" fill="white" opacity="0.92"/><text x="598.5" y="526" text-anchor="middle" class="lbl">(10)  输入支付密码</text><line x1="1100" y1="570" x2="703" y2="570" stroke="#555" stroke-width="1.5" stroke-dasharray="5,4" marker-end="url(#ad)"/><rect x="833.5" y="555" width="136" height="14" fill="white" opacity="0.92"/><text x="901.5" y="566" text-anchor="middle" class="lbl">(11) 支付成功回调 (异步)</text><line x1="700" y1="610" x2="1297" y2="610" stroke="#555" stroke-width="1.5" stroke-dasharray="5,4" marker-end="url(#ad)"/><rect x="902.5" y="595" width="192" height="14" fill="white" opacity="0.92"/><text x="998.5" y="606" text-anchor="middle" class="lbl">(12) AdoptionCreated 事件</text><line x1="1300" y1="650" x2="103" y2="650" stroke="#555" stroke-width="1.5"  marker-end="url(#a)"/><rect x="637.5" y="635" width="128" height="14" fill="white" opacity="0.92"/><text x="701.5" y="646" text-anchor="middle" class="lbl">(13) 订阅消息&quot;认养成功&quot;</text></svg>