<svg xmlns="http://www.w3.org/2000/svg" width="1400" height="650" viewBox="0 0 1400 650">
  <defs>
    <marker id="a" markerWidth="10" markerHeight="10" refX="9" refY="3" orient="auto"><path d="M0,0 L0,6 L9,3 z" fill="#555"/></marker>
    <marker id="ad" markerWidth="10" markerHeight="10" refX="9" refY="3" orient="auto"><path d="M0,0 L0,6 L9,3 z" fill="#999"/></marker>
  </defs>
  <rect width="1400" height="650" fill="#FFFFFF"/>
  <style>
    text { font-family: 'Microsoft YaHei','SimHei','PingFang SC','Noto Sans CJK SC',sans-serif; }
    .mono { font-family: 'Consolas','Courier New',monospace; }
    .title { font-size: 18px; font-weight: 700; fill: #1B1B1B; }
    .subtitle { font-size: 12px; fill: #555; }
    .h { font-size: 14px; font-weight: 600; }
    .b { font-size: 13px; }
    .s { font-size: 11px; fill: #555; }
    .lbl { font-size: 11px; fill: #555; }
  </style><text x="20" y="36" class="title">图8 · 时序图 · 互动指令（浇水/施肥）执行</text><rect x="30" y="80" width="160" height="48" rx="8" ry="8" fill="#E8F4EA" stroke="#4CA777" stroke-width="1.5"/><text x="110" y="100" text-anchor="middle" class="h" fill="#1B1B1B">用户</text><text x="110" y="116" text-anchor="middle" class="s" fill="#1B1B1B">小程序</text><line x1="110" y1="128" x2="110" y2="600" stroke="#999" stroke-width="1" stroke-dasharray="3,3"/><rect x="250" y="80" width="160" height="48" rx="8" ry="8" fill="#E8F4EA" stroke="#4CA777" stroke-width="1.5"/><text x="330" y="100" text-anchor="middle" class="h" fill="#1B1B1B">后端</text><text x="330" y="116" text-anchor="middle" class="s" fill="#1B1B1B">Command 域</text><line x1="330" y1="128" x2="330" y2="600" stroke="#999" stroke-width="1" stroke-dasharray="3,3"/><rect x="480" y="80" width="160" height="48" rx="8" ry="8" fill="#E8F4EA" stroke="#4CA777" stroke-width="1.5"/><text x="560" y="100" text-anchor="middle" class="h" fill="#1B1B1B">Redis</text><text x="560" y="116" text-anchor="middle" class="s" fill="#1B1B1B">冷却/配额</text><line x1="560" y1="128" x2="560" y2="600" stroke="#999" stroke-width="1" stroke-dasharray="3,3"/><rect x="700" y="80" width="160" height="48" rx="8" ry="8" fill="#E8F4EA" stroke="#4CA777" stroke-width="1.5"/><text x="780" y="100" text-anchor="middle" class="h" fill="#1B1B1B">农技员</text><text x="780" y="116" text-anchor="middle" class="s" fill="#1B1B1B">移动 Web</text><line x1="780" y1="128" x2="780" y2="600" stroke="#999" stroke-width="1" stroke-dasharray="3,3"/><rect x="930" y="80" width="160" height="48" rx="8" ry="8" fill="#E8F4EA" stroke="#4CA777" stroke-width="1.5"/><text x="1010" y="100" text-anchor="middle" class="h" fill="#1B1B1B">OSS</text><text x="1010" y="116" text-anchor="middle" class="s" fill="#1B1B1B">照片存储</text><line x1="1010" y1="128" x2="1010" y2="600" stroke="#999" stroke-width="1" stroke-dasharray="3,3"/><rect x="1160" y="80" width="160" height="48" rx="8" ry="8" fill="#E8F4EA" stroke="#4CA777" stroke-width="1.5"/><text x="1240" y="100" text-anchor="middle" class="h" fill="#1B1B1B">消息服务</text><text x="1240" y="116" text-anchor="middle" class="s" fill="#1B1B1B">Notify</text><line x1="1240" y1="128" x2="1240" y2="600" stroke="#999" stroke-width="1" stroke-dasharray="3,3"/><line x1="110" y1="170" x2="327" y2="170" stroke="#555" stroke-width="1.5"  marker-end="url(#a)"/><rect x="178.5" y="155" width="80" height="14" fill="white" opacity="0.92"/><text x="218.5" y="166" text-anchor="middle" class="lbl">(1)点击&quot;浇水&quot;</text><line x1="330" y1="210" x2="557" y2="210" stroke="#555" stroke-width="1.5"  marker-end="url(#a)"/><rect x="391.5" y="195" width="104" height="14" fill="white" opacity="0.92"/><text x="443.5" y="206" text-anchor="middle" class="lbl">(2)  查询冷却/限额</text><line x1="560" y1="250" x2="333" y2="250" stroke="#555" stroke-width="1.5"  marker-end="url(#a)"/><rect x="414.5" y="235" width="64" height="14" fill="white" opacity="0.92"/><text x="446.5" y="246" text-anchor="middle" class="lbl">(3)  通过</text><line x1="330" y1="290" x2="113" y2="290" stroke="#555" stroke-width="1.5"  marker-end="url(#a)"/><rect x="169.5" y="275" width="104" height="14" fill="white" opacity="0.92"/><text x="221.5" y="286" text-anchor="middle" class="lbl">(4)  返回&quot;已安排&quot;</text><line x1="330" y1="330" x2="777" y2="330" stroke="#555" stroke-width="1.5" stroke-dasharray="5,4" marker-end="url(#ad)"/><rect x="489.5" y="315" width="128" height="14" fill="white" opacity="0.92"/><text x="553.5" y="326" text-anchor="middle" class="lbl">(5)  推送新工单 (WS)</text><line x1="780" y1="370" x2="1007" y2="370" stroke="#555" stroke-width="1.5"  marker-end="url(#a)"/><rect x="841.5" y="355" width="104" height="14" fill="white" opacity="0.92"/><text x="893.5" y="366" text-anchor="middle" class="lbl">(6)  执行+上传照片</text><line x1="1010" y1="410" x2="333" y2="410" stroke="#555" stroke-width="1.5"  marker-end="url(#a)"/><rect x="615.5" y="395" width="112" height="14" fill="white" opacity="0.92"/><text x="671.5" y="406" text-anchor="middle" class="lbl">(7)  回调照片 URL</text><line x1="330" y1="450" x2="557" y2="450" stroke="#555" stroke-width="1.5"  marker-end="url(#a)"/><rect x="395.5" y="435" width="96" height="14" fill="white" opacity="0.92"/><text x="443.5" y="446" text-anchor="middle" class="lbl">(8)  更新工单状态</text><line x1="330" y1="490" x2="1237" y2="490" stroke="#555" stroke-width="1.5" stroke-dasharray="5,4" marker-end="url(#ad)"/><rect x="683.5" y="475" width="200" height="14" fill="white" opacity="0.92"/><text x="783.5" y="486" text-anchor="middle" class="lbl">(9)  CommandCompleted 事件</text><line x1="1240" y1="540" x2="113" y2="540" stroke="#555" stroke-width="1.5"  marker-end="url(#a)"/><rect x="608.5" y="525" width="136" height="14" fill="white" opacity="0.92"/><text x="676.5" y="536" text-anchor="middle" class="lbl">(10)  订阅消息&quot;浇水完成&quot;</text></svg>